<svg width="78" height="46" fill="none" xmlns="http://www.w3.org/2000/svg"><path d="M5.438 2.186V.825h1.335v1.36c1.367.073 2.447.484 3.238 1.235.792.75 1.187 1.681 1.187 2.793 0 1.09-.383 2.015-1.15 2.778-.768.76-1.858 1.182-3.275 1.26v1.376H5.438V10.25c-1.27-.05-2.328-.436-3.173-1.162C1.42 8.365.998 7.405.998 6.213c0-1.194.422-2.152 1.264-2.87.843-.718 1.9-1.102 3.176-1.157zm1.335 1.212v5.64c.917-.045 1.637-.311 2.165-.8.528-.489.79-1.162.79-2.02 0-.843-.258-1.509-.775-2.002-.518-.491-1.243-.763-2.18-.818zm-1.335.015c-.885.04-1.6.299-2.148.783-.547.484-.822 1.157-.822 2.022 0 .855.27 1.526.81 2.015.54.489 1.26.75 2.16.79v-5.61zm12.665 5.7l1.365.18c-.212.79-.61 1.406-1.19 1.843-.58.436-1.32.655-2.223.655-1.134 0-2.035-.349-2.7-1.047-.665-.696-.997-1.676-.997-2.935 0-1.302.335-2.314 1.007-3.032.673-.72 1.545-1.08 2.618-1.08 1.037 0 1.885.352 2.542 1.058.658.705.988 1.698.988 2.977 0 .077-.003.194-.007.349h-5.798c.05.85.29 1.504.725 1.955.433.451.975.678 1.622.678.483 0 .896-.127 1.235-.382.343-.254.613-.66.813-1.218zm-4.32-2.11h4.335c-.058-.653-.225-1.141-.498-1.468-.417-.506-.962-.76-1.63-.76-.604 0-1.112.202-1.525.606-.41.403-.637.944-.682 1.623zm8.058-3.141h5.43v6.687h.84v3.277h-1.08v-2.2h-6.135v2.2h-1.08V10.55h.69c.93-1.259 1.375-3.488 1.335-6.687zm1.094 1.092c-.097 2.52-.487 4.386-1.17 5.595h4.185V4.954h-3.015zm11.933 4.16l1.366.179c-.213.79-.61 1.406-1.19 1.843-.58.436-1.32.655-2.223.655-1.135 0-2.035-.349-2.7-1.047-.665-.696-.998-1.676-.998-2.935 0-1.302.335-2.314 1.008-3.032.672-.72 1.545-1.08 2.617-1.08 1.038 0 1.885.352 2.543 1.058.657.705.987 1.698.987 2.977 0 .077-.002.194-.007.349h-5.798c.05.85.29 1.504.725 1.955.433.451.975.678 1.623.678.482 0 .895-.127 1.235-.382.342-.254.612-.66.812-1.218zm-4.32-2.11h4.335c-.057-.654-.225-1.142-.498-1.469-.417-.506-.962-.76-1.63-.76-.604 0-1.112.202-1.524.606-.41.403-.638.944-.683 1.623zm7.353 7.6V3.862h1.2v1.02c.282-.395.602-.691.96-.888.355-.197.787-.297 1.295-.297.665 0 1.25.17 1.757.511.508.34.89.82 1.15 1.44.258.62.388 1.298.388 2.04 0 .79-.142 1.502-.428 2.139-.285.633-.7 1.119-1.245 1.458a3.204 3.204 0 0 1-1.715.506c-.44 0-.835-.092-1.182-.276a2.673 2.673 0 0 1-.86-.699v3.788h-1.32zm1.2-6.812c0 .994.202 1.73.605 2.206.405.477.895.716 1.47.716.585 0 1.085-.247 1.5-.74.417-.494.625-1.257.625-2.292 0-.988-.202-1.726-.61-2.217-.408-.491-.893-.736-1.458-.736-.56 0-1.054.262-1.485.784-.432.523-.647 1.28-.647 2.279zm12.227 2.863c-.49.416-.962.707-1.414.88a4.07 4.07 0 0 1-1.458.256c-.855 0-1.513-.207-1.972-.623-.46-.414-.69-.945-.69-1.59 0-.38.087-.726.26-1.041.174-.314.402-.563.682-.753.282-.19.598-.334.95-.431.26-.068.653-.132 1.175-.197 1.065-.125 1.852-.277 2.355-.451.005-.18.008-.295.008-.342 0-.534-.126-.91-.376-1.13-.337-.297-.84-.444-1.504-.444-.623 0-1.083.11-1.378.327-.297.217-.515.6-.658 1.154l-1.29-.179c.118-.551.31-.997.58-1.336.27-.34.66-.599 1.17-.784.508-.182 1.1-.274 1.77-.274.666 0 1.208.077 1.626.235.414.157.722.351.917.588.195.237.332.536.413.898.042.224.065.628.065 1.209v1.746c0 1.219.027 1.99.082 2.316.053.327.163.638.323.938h-1.38a2.933 2.933 0 0 1-.256-.973zm-.104-2.918c-.48.194-1.2.359-2.16.494-.545.077-.93.164-1.156.261a1.115 1.115 0 0 0-.705 1.047c0 .347.133.639.4.87.268.233.658.35 1.17.35.508 0 .96-.11 1.358-.332.395-.219.688-.52.872-.903.143-.296.213-.733.213-1.308l.008-.48zM54.6 3.862h1.32v6.687h3.66V3.862h1.32v6.687h.855v3.277h-1.08v-2.2h-6.075V3.863zm8.578 0h1.32v5.922l3.668-5.922h1.417v7.765h-1.32V5.742L64.6 11.627H63.18V3.862zm14.516 0v7.765h-1.32V8.604h-.76c-.463 0-.808.06-1.036.182-.227.123-.56.504-.997 1.15l-1.16 1.69h-1.635l1.424-2.084c.436-.638.87-.997 1.303-1.08-.752-.102-1.312-.374-1.677-.813a2.304 2.304 0 0 1-.548-1.515c0-.676.238-1.223.715-1.642.477-.42 1.17-.63 2.075-.63h3.616zm-1.32 1.092h-1.876c-.785 0-1.292.122-1.52.366-.228.245-.34.531-.34.858 0 .464.168.806.503 1.023.332.217.925.326 1.775.326h1.457V4.954zM5.437 18.901V17.54h1.335v1.36c1.367.073 2.447.484 3.238 1.235.792.75 1.187 1.68 1.187 2.793 0 1.09-.383 2.015-1.15 2.778-.768.76-1.858 1.182-3.275 1.26v1.376H5.438v-1.377c-1.27-.05-2.328-.436-3.173-1.162C1.42 25.08.998 24.12.998 22.928c0-1.195.422-2.152 1.264-2.87.843-.718 1.9-1.102 3.176-1.157zm1.335 1.212v5.64c.917-.045 1.637-.311 2.165-.8.528-.49.79-1.162.79-2.02 0-.843-.258-1.509-.775-2.002-.518-.491-1.243-.763-2.18-.818zm-1.335.015c-.885.04-1.6.299-2.148.783-.547.484-.822 1.157-.822 2.022 0 .855.27 1.526.81 2.015.54.489 1.26.75 2.16.79v-5.61zm7.355 11.19V20.577h1.2v1.02c.282-.394.602-.69.96-.887.355-.197.788-.297 1.295-.297.665 0 1.25.17 1.757.511.508.34.89.82 1.15 1.439.258.621.388 1.3.388 2.04 0 .79-.142 1.503-.427 2.14-.285.632-.7 1.119-1.246 1.458a3.203 3.203 0 0 1-1.714.506c-.44 0-.836-.092-1.183-.276a2.673 2.673 0 0 1-.86-.699v3.788h-1.32zm1.2-6.812c0 .995.202 1.731.605 2.207.405.476.895.716 1.47.716.585 0 1.085-.247 1.5-.74.417-.494.625-1.257.625-2.293 0-.987-.202-1.725-.61-2.216-.408-.491-.893-.736-1.458-.736-.56 0-1.054.262-1.485.783-.432.524-.647 1.282-.647 2.28zm7.143-3.93h1.32V26.5l3.667-5.922h1.418v7.765h-1.32v-5.885l-3.663 5.885h-1.422v-7.765zM34.6 25.5l1.29.18c-.142.885-.502 1.576-1.085 2.077-.582.501-1.3.75-2.148.75-1.062 0-1.917-.346-2.562-1.04-.648-.693-.97-1.685-.97-2.977 0-.838.14-1.568.417-2.197.278-.626.7-1.097 1.27-1.409a3.76 3.76 0 0 1 1.856-.47c.842 0 1.535.21 2.07.637.537.427.882 1.032 1.032 1.816l-1.275.194c-.122-.52-.337-.912-.65-1.177a1.686 1.686 0 0 0-1.125-.393c-.665 0-1.205.236-1.622.71-.416.476-.623 1.224-.623 2.252 0 1.042.2 1.797.6 2.269.402.471.925.708 1.568.708.52 0 .952-.157 1.297-.474.348-.314.568-.8.66-1.456zm1.726-4.922h6.299v1.092h-2.49v6.673h-1.32v-6.673h-2.49v-1.093zm12.477 6.792c-.49.417-.963.708-1.415.88a4.07 4.07 0 0 1-1.458.258c-.855 0-1.512-.208-1.972-.624-.46-.414-.69-.945-.69-1.59 0-.38.087-.726.26-1.041.174-.314.402-.563.682-.753.282-.19.598-.334.95-.432.26-.067.653-.131 1.175-.196 1.065-.125 1.853-.277 2.355-.452.005-.18.008-.294.008-.341 0-.534-.125-.91-.375-1.13-.338-.297-.84-.444-1.505-.444-.623 0-1.083.11-1.378.327-.297.217-.515.6-.658 1.154l-1.289-.179c.117-.551.31-.998.58-1.336.27-.34.66-.599 1.17-.784.507-.182 1.1-.274 1.77-.274.665 0 1.207.077 1.625.234.415.158.722.352.917.589.195.237.333.536.413.898.042.224.065.628.065 1.209v1.746c0 1.219.028 1.99.083 2.316.052.327.162.638.322.938h-1.38a2.938 2.938 0 0 1-.255-.973zm-.105-2.918c-.48.195-1.2.36-2.16.494-.545.078-.93.165-1.155.262a1.114 1.114 0 0 0-.705 1.047c0 .347.132.639.4.87.267.232.657.35 1.17.35.507 0 .96-.11 1.357-.332.395-.22.688-.52.873-.903.142-.296.212-.733.212-1.309l.008-.479zm3.362-3.875h1.32V26.5l3.668-5.922h1.418v7.765h-1.32v-5.885l-3.663 5.885H52.06v-7.765zm4.56-2.872h.9c-.072.616-.297 1.09-.672 1.419-.375.331-.872.496-1.495.496-.625 0-1.125-.165-1.498-.491-.372-.329-.597-.803-.67-1.424h.9c.068.337.206.589.408.753.203.167.477.25.82.25.398 0 .698-.08.9-.243.203-.159.34-.413.407-.76zm4.466 2.872h6.135v7.758h-1.32V21.67h-3.495v3.863c0 .9-.03 1.493-.087 1.782-.06.287-.22.536-.483.75-.265.215-.645.322-1.143.322-.307 0-.662-.02-1.062-.057v-1.094h.578c.272 0 .467-.028.584-.085a.428.428 0 0 0 .235-.267c.038-.122.058-.519.058-1.19v-5.117zM74.28 27.37c-.49.417-.962.708-1.415.88a4.068 4.068 0 0 1-1.457.258c-.855 0-1.513-.208-1.972-.624-.46-.414-.69-.945-.69-1.59 0-.38.087-.726.26-1.041.174-.314.402-.563.682-.753.282-.19.598-.334.95-.432.26-.067.653-.131 1.175-.196 1.065-.125 1.852-.277 2.355-.452.005-.18.008-.294.008-.341 0-.534-.126-.91-.376-1.13-.337-.297-.84-.444-1.504-.444-.623 0-1.083.11-1.378.327-.298.217-.515.6-.658 1.154l-1.29-.179c.118-.551.31-.998.58-1.336.27-.34.66-.599 1.17-.784.508-.182 1.1-.274 1.77-.274.665 0 1.208.077 1.626.234.415.158.722.352.917.589.195.237.332.536.413.898.042.224.065.628.065 1.209v1.746c0 1.219.027 1.99.082 2.316.053.327.163.638.323.938h-1.38a2.936 2.936 0 0 1-.256-.973zm-.104-2.918c-.48.195-1.2.36-2.16.494-.546.078-.93.165-1.156.262a1.114 1.114 0 0 0-.705 1.047c0 .347.133.639.4.87.268.232.658.35 1.17.35.508 0 .96-.11 1.358-.332.395-.22.688-.52.872-.903.143-.296.213-.733.213-1.309l.008-.479zM1.553 45.056V34.344h4.055c.712 0 1.257.035 1.635.102.527.087.97.254 1.327.499.358.247.646.59.863 1.033.217.44.325.927.325 1.458 0 .908-.29 1.678-.872 2.307-.58.63-1.633.944-3.153.944H2.977v4.37H1.553zm1.424-5.625h2.776c.92 0 1.57-.17 1.957-.511.386-.342.578-.82.578-1.442 0-.446-.113-.83-.34-1.15a1.602 1.602 0 0 0-.898-.633c-.24-.062-.682-.094-1.325-.094H2.977v3.83zm7.261 1.743c0-1.434.4-2.496 1.203-3.187.667-.574 1.485-.86 2.447-.86 1.068 0 1.943.35 2.623 1.047.677.696 1.018 1.66 1.018 2.89 0 .998-.15 1.78-.45 2.352-.3.57-.738 1.015-1.313 1.331-.573.317-1.2.474-1.878.474-1.09 0-1.97-.347-2.643-1.042-.672-.696-1.007-1.698-1.007-3.005zm1.35.002c0 .993.218 1.736.653 2.227.437.494.985.741 1.647.741.655 0 1.2-.247 1.638-.743.435-.497.652-1.252.652-2.267 0-.958-.22-1.683-.657-2.175a2.095 2.095 0 0 0-1.633-.74 2.11 2.11 0 0 0-1.647.736c-.435.491-.653 1.232-.653 2.221zm12.573 1.038l1.29.18c-.143.884-.502 1.575-1.085 2.077-.583.501-1.3.75-2.148.75-1.062 0-1.917-.347-2.562-1.04-.648-.693-.97-1.685-.97-2.977 0-.838.14-1.569.417-2.197.278-.626.7-1.097 1.27-1.409a3.76 3.76 0 0 1 1.855-.471c.843 0 1.535.212 2.07.638.538.426.883 1.032 1.033 1.816l-1.275.194c-.123-.52-.338-.913-.65-1.177a1.686 1.686 0 0 0-1.125-.394c-.665 0-1.205.237-1.622.71-.416.477-.623 1.225-.623 2.252 0 1.043.2 1.798.6 2.27.402.471.925.708 1.568.708.52 0 .952-.157 1.297-.474.348-.314.567-.8.66-1.456zm7.5 0l1.29.18c-.142.884-.502 1.575-1.085 2.077-.582.501-1.3.75-2.148.75-1.062 0-1.917-.347-2.562-1.04-.648-.693-.97-1.685-.97-2.977 0-.838.14-1.569.417-2.197.278-.626.7-1.097 1.27-1.409a3.759 3.759 0 0 1 1.856-.471c.842 0 1.535.212 2.07.638.537.426.882 1.032 1.032 1.816l-1.275.194c-.122-.52-.337-.913-.65-1.177a1.685 1.685 0 0 0-1.125-.394c-.665 0-1.205.237-1.622.71-.415.477-.623 1.225-.623 2.252 0 1.043.2 1.798.6 2.27.402.471.925.708 1.568.708.52 0 .952-.157 1.297-.474.348-.314.568-.8.66-1.456zm2.415-4.923h1.32v5.923l3.668-5.923h1.417v7.765h-1.32v-5.884l-3.663 5.884h-1.422v-7.765zm8.38 0h1.32v5.923l3.668-5.923h1.418v7.765h-1.32v-5.884l-3.663 5.884h-1.422v-7.765z" fill="#292C44"/></svg>