<svg width="76" height="52" fill="none" xmlns="http://www.w3.org/2000/svg"><path fill-rule="evenodd" clip-rule="evenodd" d="M12.612 36.505c3.15 12.595 20.605.239 26.384-3.306 9.628-5.904 17.235-14.058 28.582-10.846-3.603-12.608-20.697.253-26.457 3.834-10.097 6.28-16.655 13.607-28.509 10.318z" fill="#05ABEC"/><path fill-rule="evenodd" clip-rule="evenodd" d="M8.997 30.286c1.835 13.067 21.072-.062 26.197-3.16 10.284-6.219 16.546-13.682 28.672-10.97-3.659-12.518-20.883.444-26.809 4.154-9.018 5.646-17.582 14.017-28.06 9.976z" fill="#05ABEC"/><path fill-rule="evenodd" clip-rule="evenodd" d="M38.41 51.819c2.168-.6 14.08-8.36 16.881-10.114 8.51-5.329 9.386-7.762 19.96-4.8-1.285-4.098-5.981-6.026-10.053-5.517-4.43.555-15.902 8.514-20.406 11.227-5.659 3.408-6.773 2.41-6.382 9.204z" fill="#CB222A"/><path fill-rule="evenodd" clip-rule="evenodd" d="M38.353 38.388l.036 5.23c2.368-.62 12.172-7.251 14.877-8.953 7.495-4.712 8.608-6.589 17.952-4.242-2.468-8.25-12.002-5.103-17.151-1.822-4.977 3.172-11.157 6.35-15.714 9.787z" fill="#CB222A"/><path fill-rule="evenodd" clip-rule="evenodd" d="M2.978 17.27c1.335 3.687 6.252 4.138 9.576 3.197C18.102 18.895 33.055 9.005 38 5.727l-.092-4.041c-4.142 2.989-11.045 6.85-15.723 9.729-7.157 4.403-10.395 7.49-19.207 5.854zM6.716 23.891c4.373 6.623 11.415 2.496 16.517-.5 4.128-2.424 11.213-6.171 14.764-9.006l-.031-4.111c-4.699 2.719-9.516 5.76-14.292 8.556-5.493 3.216-10.11 6.538-16.958 5.061z" fill="#FEFEFE"/><path fill-rule="evenodd" clip-rule="evenodd" d="M2.98 17.27c8.81 1.636 12.049-1.45 19.206-5.854 4.678-2.878 11.581-6.74 15.723-9.729l.092 4.042c-4.945 3.277-19.898 13.167-25.446 14.738-3.324.941-8.241.49-9.576-3.197zM.657 14.892c3.133 10.684 12.856 7.095 19.768 2.98 3.635-2.164 16.301-9.465 18.586-11.912l.02-5.872c-3.209.79-19.628 12.43-26.608 15.712-4.994 2.348-7.371.98-11.766-.908z" fill="#234B7B"/><path fill-rule="evenodd" clip-rule="evenodd" d="M6.716 23.891c6.847 1.477 11.465-1.845 16.957-5.061 4.777-2.796 9.594-5.837 14.293-8.557l.03 4.112c-3.55 2.834-10.636 6.582-14.763 9.006-5.102 2.996-12.144 7.123-16.517.5zm-2.127-2.174c.263 3.012 3.779 6.06 6.72 6.54 3.856.632 7.399-1.08 10.64-2.928 5.161-2.941 12.354-6.926 16.968-10.406l.126-6.263c-6.97 1.37-24.689 19.953-34.454 13.057z" fill="#234B7B"/></svg>